<?xml version="1.0" standalone="no"?><!DOCTYPE svg PUBLIC "-//W3C//DTD SVG 1.1//EN" "http://www.w3.org/Graphics/SVG/1.1/DTD/svg11.dtd"><svg t="1726503332726" class="icon" viewBox="0 0 1024 1024" version="1.1" xmlns="http://www.w3.org/2000/svg" p-id="4271" xmlns:xlink="http://www.w3.org/1999/xlink" width="128" height="128"><path d="M851.2 936.533333h-682.666667c-46.933333 0-85.333333-38.4-85.333333-85.333333v-682.666667c0-46.933333 38.4-85.333333 85.333333-85.333333h682.666667c46.933333 0 85.333333 38.4 85.333333 85.333333v682.666667c0 46.933333-38.4 85.333333-85.333333 85.333333z m-682.666667-810.666666c-23.466667 0-42.666667 19.2-42.666666 42.666666v682.666667c0 23.466667 19.2 42.666667 42.666666 42.666667h682.666667c23.466667 0 42.666667-19.2 42.666667-42.666667v-682.666667c0-23.466667-19.2-42.666667-42.666667-42.666666h-682.666667z m149.333334 354.133333c10.666667-12.8 21.333333-21.333333 34.133333-27.733333 12.8-6.4 25.6-10.666667 42.666667-10.666667h238.933333c14.933333 0 29.866667 4.266667 42.666667 10.666667 12.8 6.4 23.466667 17.066667 34.133333 27.733333l46.933333 61.866667c6.4 8.533333 4.266667 19.2-4.266666 25.6l-2.133334 2.133333c-8.533333 6.4-19.2 4.266667-25.6-4.266667l-46.933333-61.866666c-10.666667-14.933333-27.733333-23.466667-46.933333-23.466667H392.533333c-8.533333 0-17.066667 2.133333-25.6 6.4-8.533333 4.266667-14.933333 8.533333-19.2 17.066667l-46.933333 61.866666c-6.4 8.533333-17.066667 8.533333-25.6 4.266667l-2.133333-2.133333c-6.4-6.4-8.533333-17.066667-4.266667-25.6l49.066667-61.866667z m14.933333-160h153.6c10.666667 0 19.2 8.533333 19.2 19.2v2.133333c0 10.666667-8.533333 19.2-19.2 19.2h-91.733333v38.4c0 8.533333-8.533333 17.066667-19.2 17.066667h-2.133334c-10.666667 0-19.2-8.533333-19.2-17.066667v-38.4H298.666667c-12.8 0-21.333333-14.933333-14.933334-27.733333l21.333334-38.4c4.266667-8.533333 17.066667-10.666667 25.6-6.4 4.266667 2.133333 8.533333 6.4 8.533333 10.666667 2.133333 4.266667 0 10.666667-2.133333 14.933333l-4.266667 6.4z m32 456.533333c-23.466667 0-44.8-14.933333-53.333333-36.266666-4.266667-6.4-6.4-14.933333-6.4-23.466667v-61.866667c0-8.533333 2.133333-14.933333 6.4-23.466666 8.533333-21.333333 29.866667-36.266667 53.333333-36.266667h294.4c14.933333 0 29.866667 6.4 42.666667 17.066667 10.666667 10.666667 17.066667 25.6 17.066666 42.666666v61.866667c0 17.066667-6.4 29.866667-17.066666 42.666667-10.666667 10.666667-25.6 17.066667-42.666667 17.066666H364.8z m292.266667-38.4c6.4 0 10.666667-2.133333 14.933333-6.4 4.266667-4.266667 6.4-8.533333 6.4-14.933333v-61.866667c0-6.4-2.133333-10.666667-6.4-14.933333-4.266667-4.266667-8.533333-6.4-14.933333-6.4H364.8c-6.4 0-10.666667 2.133333-14.933333 6.4-4.266667 4.266667-6.4 8.533333-6.4 14.933333v61.866667c0 12.8 8.533333 21.333333 21.333333 21.333333h292.266667z m-12.8-213.333333c10.666667 0 19.2 8.533333 19.2 19.2s-8.533333 19.2-19.2 19.2H377.6c-10.666667 0-19.2-8.533333-19.2-19.2s8.533333-19.2 19.2-19.2h266.666667z m-42.666667-204.8h142.933333c10.666667 0 19.2 8.533333 19.2 19.2v2.133333c0 10.666667-8.533333 19.2-19.2 19.2h-87.466666v38.4c0 8.533333-8.533333 17.066667-19.2 17.066667h-2.133334c-10.666667 0-19.2-8.533333-19.2-17.066667v-38.4h-51.2c-14.933333 0-23.466667-14.933333-17.066666-27.733333l23.466666-38.4c4.266667-8.533333 14.933333-10.666667 25.6-6.4 8.533333 4.266667 10.666667 17.066667 6.4 25.6l-2.133333 6.4z" fill="#666666" p-id="4272"></path></svg>